<svg width="136" height="48" viewBox="0 0 136 48" fill="none" xmlns="http://www.w3.org/2000/svg">
<path d="M0.304 9.6V1.344H15.728V48H6.512V9.6H0.304ZM54.2755 8.128L37.2515 48H28.1635L45.3155 9.152H23.4275V1.472H54.2755V8.128ZM59.642 24.064C59.642 16.6827 60.9647 10.9013 63.61 6.72C66.298 2.53866 70.7353 0.447998 76.922 0.447998C83.1087 0.447998 87.5247 2.53866 90.17 6.72C92.858 10.9013 94.202 16.6827 94.202 24.064C94.202 31.488 92.858 37.312 90.17 41.536C87.5247 45.76 83.1087 47.872 76.922 47.872C70.7353 47.872 66.298 45.76 63.61 41.536C60.9647 37.312 59.642 31.488 59.642 24.064ZM85.37 24.064C85.37 20.9067 85.1567 18.2613 84.73 16.128C84.346 13.952 83.5353 12.1813 82.298 10.816C81.1033 9.45066 79.3113 8.768 76.922 8.768C74.5327 8.768 72.7193 9.45066 71.482 10.816C70.2873 12.1813 69.4767 13.952 69.05 16.128C68.666 18.2613 68.474 20.9067 68.474 24.064C68.474 27.3067 68.666 30.0373 69.05 32.256C69.434 34.432 70.2447 36.2027 71.482 37.568C72.7193 38.8907 74.5327 39.552 76.922 39.552C79.3113 39.552 81.1247 38.8907 82.362 37.568C83.5993 36.2027 84.41 34.432 84.794 32.256C85.178 30.0373 85.37 27.3067 85.37 24.064ZM135.513 29.12H123.417V41.536H114.969V29.12H102.873V21.312H114.969V8.896H123.417V21.312H135.513V29.12Z" fill="black"/>
</svg>
