<svg width="172" height="57" viewBox="0 0 172 57" fill="none" xmlns="http://www.w3.org/2000/svg">
<path d="M4.208 37.888C8.304 34.4747 11.568 31.6373 14 29.376C16.432 27.072 18.4587 24.6827 20.08 22.208C21.7013 19.7333 22.512 17.3013 22.512 14.912C22.512 12.736 22 11.0293 20.976 9.792C19.952 8.55466 18.3733 7.936 16.24 7.936C14.1067 7.936 12.464 8.66133 11.312 10.112C10.16 11.52 9.56267 13.4613 9.52 15.936H0.816C0.986667 10.816 2.50133 6.93333 5.36 4.288C8.26133 1.64266 11.9307 0.319996 16.368 0.319996C21.232 0.319996 24.9653 1.62133 27.568 4.224C30.1707 6.784 31.472 10.176 31.472 14.4C31.472 17.728 30.576 20.9067 28.784 23.936C26.992 26.9653 24.944 29.6107 22.64 31.872C20.336 34.0907 17.328 36.7787 13.616 39.936H32.496V47.36H0.88V40.704L4.208 37.888ZM48.958 38.592L41.47 56.576H35.71L39.87 38.592H48.958ZM85.752 9.088H65.016V20.032C65.912 18.9227 67.192 18.0267 68.856 17.344C70.52 16.6187 72.2907 16.256 74.168 16.256C77.5813 16.256 80.376 17.0027 82.552 18.496C84.728 19.9893 86.3067 21.9093 87.288 24.256C88.2693 26.56 88.76 29.0347 88.76 31.68C88.76 36.5867 87.352 40.5333 84.536 43.52C81.7627 46.5067 77.7947 48 72.632 48C67.768 48 63.8853 46.784 60.984 44.352C58.0827 41.92 56.44 38.7413 56.056 34.816H64.76C65.144 36.5227 65.9973 37.888 67.32 38.912C68.6853 39.936 70.4133 40.448 72.504 40.448C75.0213 40.448 76.92 39.6587 78.2 38.08C79.48 36.5013 80.12 34.4107 80.12 31.808C80.12 29.1627 79.4587 27.1573 78.136 25.792C76.856 24.384 74.9573 23.68 72.44 23.68C70.648 23.68 69.1547 24.128 67.96 25.024C66.7653 25.92 65.912 27.1147 65.4 28.608H56.824V1.216H85.752V9.088ZM95.5795 24.064C95.5795 16.6827 96.9022 10.9013 99.5475 6.72C102.236 2.53866 106.673 0.447998 112.86 0.447998C119.046 0.447998 123.462 2.53866 126.108 6.72C128.796 10.9013 130.14 16.6827 130.14 24.064C130.14 31.488 128.796 37.312 126.108 41.536C123.462 45.76 119.046 47.872 112.86 47.872C106.673 47.872 102.236 45.76 99.5475 41.536C96.9022 37.312 95.5795 31.488 95.5795 24.064ZM121.308 24.064C121.308 20.9067 121.094 18.2613 120.668 16.128C120.284 13.952 119.473 12.1813 118.236 10.816C117.041 9.45066 115.249 8.768 112.86 8.768C110.47 8.768 108.657 9.45066 107.42 10.816C106.225 12.1813 105.414 13.952 104.988 16.128C104.604 18.2613 104.412 20.9067 104.412 24.064C104.412 27.3067 104.604 30.0373 104.988 32.256C105.372 34.432 106.182 36.2027 107.42 37.568C108.657 38.8907 110.47 39.552 112.86 39.552C115.249 39.552 117.062 38.8907 118.3 37.568C119.537 36.2027 120.348 34.432 120.732 32.256C121.116 30.0373 121.308 27.3067 121.308 24.064ZM136.955 24.064C136.955 16.6827 138.277 10.9013 140.923 6.72C143.611 2.53866 148.048 0.447998 154.235 0.447998C160.421 0.447998 164.837 2.53866 167.483 6.72C170.171 10.9013 171.515 16.6827 171.515 24.064C171.515 31.488 170.171 37.312 167.483 41.536C164.837 45.76 160.421 47.872 154.235 47.872C148.048 47.872 143.611 45.76 140.923 41.536C138.277 37.312 136.955 31.488 136.955 24.064ZM162.683 24.064C162.683 20.9067 162.469 18.2613 162.043 16.128C161.659 13.952 160.848 12.1813 159.611 10.816C158.416 9.45066 156.624 8.768 154.235 8.768C151.845 8.768 150.032 9.45066 148.795 10.816C147.6 12.1813 146.789 13.952 146.363 16.128C145.979 18.2613 145.787 20.9067 145.787 24.064C145.787 27.3067 145.979 30.0373 146.363 32.256C146.747 34.432 147.557 36.2027 148.795 37.568C150.032 38.8907 151.845 39.552 154.235 39.552C156.624 39.552 158.437 38.8907 159.675 37.568C160.912 36.2027 161.723 34.432 162.107 32.256C162.491 30.0373 162.683 27.3067 162.683 24.064Z" fill="black"/>
</svg>
