<svg width="215" height="57" viewBox="0 0 215 57" fill="none" xmlns="http://www.w3.org/2000/svg">
<path d="M29.752 9.088H9.016V20.032C9.912 18.9227 11.192 18.0267 12.856 17.344C14.52 16.6187 16.2907 16.256 18.168 16.256C21.5813 16.256 24.376 17.0027 26.552 18.496C28.728 19.9893 30.3067 21.9093 31.288 24.256C32.2693 26.56 32.76 29.0347 32.76 31.68C32.76 36.5867 31.352 40.5333 28.536 43.52C25.7627 46.5067 21.7947 48 16.632 48C11.768 48 7.88533 46.784 4.984 44.352C2.08267 41.92 0.44 38.7413 0.0560002 34.816H8.76C9.144 36.5227 9.99733 37.888 11.32 38.912C12.6853 39.936 14.4133 40.448 16.504 40.448C19.0213 40.448 20.92 39.6587 22.2 38.08C23.48 36.5013 24.12 34.4107 24.12 31.808C24.12 29.1627 23.4587 27.1573 22.136 25.792C20.856 24.384 18.9573 23.68 16.44 23.68C14.648 23.68 13.1547 24.128 11.96 25.024C10.7653 25.92 9.912 27.1147 9.4 28.608H0.824V1.216H29.752V9.088ZM50.3955 38.592L42.9075 56.576H37.1475L41.3075 38.592H50.3955ZM55.8295 24.064C55.8295 16.6827 57.1522 10.9013 59.7975 6.72C62.4855 2.53866 66.9228 0.447998 73.1095 0.447998C79.2962 0.447998 83.7122 2.53866 86.3575 6.72C89.0455 10.9013 90.3895 16.6827 90.3895 24.064C90.3895 31.488 89.0455 37.312 86.3575 41.536C83.7122 45.76 79.2962 47.872 73.1095 47.872C66.9228 47.872 62.4855 45.76 59.7975 41.536C57.1522 37.312 55.8295 31.488 55.8295 24.064ZM81.5575 24.064C81.5575 20.9067 81.3442 18.2613 80.9175 16.128C80.5335 13.952 79.7228 12.1813 78.4855 10.816C77.2908 9.45066 75.4988 8.768 73.1095 8.768C70.7202 8.768 68.9068 9.45066 67.6695 10.816C66.4748 12.1813 65.6642 13.952 65.2375 16.128C64.8535 18.2613 64.6615 20.9067 64.6615 24.064C64.6615 27.3067 64.8535 30.0373 65.2375 32.256C65.6215 34.432 66.4322 36.2027 67.6695 37.568C68.9068 38.8907 70.7202 39.552 73.1095 39.552C75.4988 39.552 77.3122 38.8907 78.5495 37.568C79.7868 36.2027 80.5975 34.432 80.9815 32.256C81.3655 30.0373 81.5575 27.3067 81.5575 24.064ZM97.2045 24.064C97.2045 16.6827 98.5272 10.9013 101.173 6.72C103.861 2.53866 108.298 0.447998 114.485 0.447998C120.671 0.447998 125.087 2.53866 127.733 6.72C130.421 10.9013 131.765 16.6827 131.765 24.064C131.765 31.488 130.421 37.312 127.733 41.536C125.087 45.76 120.671 47.872 114.485 47.872C108.298 47.872 103.861 45.76 101.173 41.536C98.5272 37.312 97.2045 31.488 97.2045 24.064ZM122.933 24.064C122.933 20.9067 122.719 18.2613 122.293 16.128C121.909 13.952 121.098 12.1813 119.861 10.816C118.666 9.45066 116.874 8.768 114.485 8.768C112.095 8.768 110.282 9.45066 109.045 10.816C107.85 12.1813 107.039 13.952 106.613 16.128C106.229 18.2613 106.037 20.9067 106.037 24.064C106.037 27.3067 106.229 30.0373 106.613 32.256C106.997 34.432 107.807 36.2027 109.045 37.568C110.282 38.8907 112.095 39.552 114.485 39.552C116.874 39.552 118.687 38.8907 119.925 37.568C121.162 36.2027 121.973 34.432 122.357 32.256C122.741 30.0373 122.933 27.3067 122.933 24.064ZM138.58 24.064C138.58 16.6827 139.902 10.9013 142.548 6.72C145.236 2.53866 149.673 0.447998 155.86 0.447998C162.046 0.447998 166.462 2.53866 169.108 6.72C171.796 10.9013 173.14 16.6827 173.14 24.064C173.14 31.488 171.796 37.312 169.108 41.536C166.462 45.76 162.046 47.872 155.86 47.872C149.673 47.872 145.236 45.76 142.548 41.536C139.902 37.312 138.58 31.488 138.58 24.064ZM164.308 24.064C164.308 20.9067 164.094 18.2613 163.668 16.128C163.284 13.952 162.473 12.1813 161.236 10.816C160.041 9.45066 158.249 8.768 155.86 8.768C153.47 8.768 151.657 9.45066 150.42 10.816C149.225 12.1813 148.414 13.952 147.988 16.128C147.604 18.2613 147.412 20.9067 147.412 24.064C147.412 27.3067 147.604 30.0373 147.988 32.256C148.372 34.432 149.182 36.2027 150.42 37.568C151.657 38.8907 153.47 39.552 155.86 39.552C158.249 39.552 160.062 38.8907 161.3 37.568C162.537 36.2027 163.348 34.432 163.732 32.256C164.116 30.0373 164.308 27.3067 164.308 24.064ZM214.451 29.12H202.355V41.536H193.907V29.12H181.811V21.312H193.907V8.896H202.355V21.312H214.451V29.12Z" fill="black"/>
</svg>
